<?xml version="1.0" standalone="no"?>
<!DOCTYPE svg PUBLIC "-//W3C//DTD SVG 20010904//EN"
 "http://www.w3.org/TR/2001/REC-SVG-20010904/DTD/svg10.dtd">
<svg version="1.0" xmlns="http://www.w3.org/2000/svg"
 width="700.000000pt" height="700.000000pt" viewBox="0 0 700.000000 700.000000"
 preserveAspectRatio="xMidYMid meet">
<metadata>
Created by potrace 1.14, written by Peter Selinger 2001-2017
</metadata>
<g transform="translate(0.000000,700.000000) scale(0.100000,-0.100000)"
fill="#000000" stroke="none">
<path d="M1235 4780 c-184 -48 -303 -123 -426 -270 -105 -126 -164 -286 -170
-460 0 -25 0 -49 1 -55 1 -5 2 -14 1 -18 -3 -14 -3 -111 -1 -122 1 -5 2 -26 1
-45 -3 -124 -2 -160 3 -169 4 -6 4 -11 -1 -11 -4 0 -7 -33 -5 -72 3 -85 3 -79
1 -162 -1 -35 2 -69 5 -75 4 -6 4 -11 -1 -11 -20 0 -2 -445 22 -535 55 -210
214 -401 415 -498 135 -66 211 -77 500 -77 85 1 164 1 175 1 59 0 154 0 185 1
19 0 64 0 100 -1 36 -1 125 -1 198 -1 73 0 137 -2 142 -5 5 -3 11 -1 15 5 4 6
11 8 16 5 8 -6 271 -9 295 -4 5 1 14 0 19 -1 11 -2 101 0 220 4 134 5 236 73
293 193 24 51 27 70 27 158 0 91 -3 106 -30 159 -33 65 -98 128 -165 160 -45
21 -52 21 -887 24 l-843 3 -1 34 c0 19 0 73 0 120 0 47 0 302 0 568 l1 482
608 -1 c334 -1 610 -2 615 -3 4 0 7 -61 7 -134 l0 -132 -322 0 c-178 0 -345
-3 -372 -8 -170 -30 -283 -184 -269 -368 12 -169 121 -293 278 -317 89 -14
1080 -9 1131 6 94 27 216 150 243 245 13 48 14 675 0 755 -29 176 -105 320
-235 444 -64 61 -113 94 -199 134 -152 70 -119 68 -855 70 -615 2 -670 1 -735
-16z"/>
<path d="M4349 4785 c-189 -38 -365 -155 -481 -319 -54 -77 -67 -103 -106
-216 -24 -70 -26 -88 -26 -260 -1 -151 2 -198 18 -254 68 -250 248 -448 488
-535 118 -43 147 -45 790 -46 340 -1 620 -3 622 -6 6 -6 8 -46 7 -151 l-1 -98
-817 0 c-894 0 -881 1 -968 -59 -175 -119 -194 -406 -38 -556 15 -15 53 -39
83 -53 49 -23 69 -26 180 -29 69 -1 143 -3 165 -4 22 0 45 0 50 1 6 1 14 2 18
1 5 -1 73 -1 150 -1 78 1 158 0 177 -1 19 0 41 -1 48 -1 6 1 66 1 132 1 66 0
126 0 133 0 6 0 71 1 142 1 72 1 135 0 140 0 27 -3 329 1 395 5 261 16 502
177 628 420 33 64 59 137 68 195 3 19 7 41 9 48 7 20 6 269 0 322 -26 199
-150 397 -332 529 -60 43 -165 90 -255 113 -80 21 -104 22 -711 22 l-628 1 3
125 3 125 820 1 c612 0 831 4 863 13 96 27 168 88 211 180 23 49 26 69 26 156
0 89 -3 106 -28 156 -32 66 -99 132 -165 162 -47 22 -49 22 -897 24 -676 1
-864 -1 -916 -12z"/>
</g>
</svg>
